<?xml version="1.0" standalone="no"?><!DOCTYPE svg PUBLIC "-//W3C//DTD SVG 1.1//EN" "http://www.w3.org/Graphics/SVG/1.1/DTD/svg11.dtd"><svg t="1645247214895" class="icon" viewBox="0 0 1024 1024" version="1.1" xmlns="http://www.w3.org/2000/svg" p-id="8064" xmlns:xlink="http://www.w3.org/1999/xlink" width="16" height="16"><defs><style type="text/css"></style></defs><path d="M506.4 846.4c-184 0-334.4-149.6-334.4-334.4 0-184 149.6-334.4 334.4-334.4S840.8 328 840.8 512c0 184-150.4 334.4-334.4 334.4z m0-636.8c-166.4 0-302.4 135.2-302.4 302.4 0 166.4 135.2 302.4 302.4 302.4 166.4 0 302.4-135.2 302.4-302.4 0-166.4-136-302.4-302.4-302.4z" p-id="8065"></path><path d="M506.4 704.8C400 704.8 313.6 618.4 313.6 512S400 319.2 506.4 319.2 699.2 405.6 699.2 512 612.8 704.8 506.4 704.8z m0-369.6c-97.6 0-176.8 79.2-176.8 176.8 0 97.6 79.2 176.8 176.8 176.8 97.6 0 176.8-79.2 176.8-176.8 0-97.6-79.2-176.8-176.8-176.8zM920 817.6c-13.6 0-27.2-5.6-36.8-16-9.6-10.4-14.4-24-13.6-37.6l13.6-324.8c0-8.8 7.2-15.2 16-15.2h42.4c8.8 0 16 6.4 16 15.2l13.6 324.8c0.8 13.6-4 27.2-13.6 37.6-10.4 10.4-24 16-37.6 16z m-6.4-361.6l-12.8 309.6c0 5.6 1.6 10.4 4.8 14.4 7.2 7.2 20 7.2 27.2 0 3.2-4 5.6-8.8 4.8-13.6L925.6 456h-12z" p-id="8066"></path><path d="M920 456c-55.2 0-100-44.8-100-100V222.4c0-8.8 7.2-16 16-16s16 7.2 16 16v133.6c0 37.6 30.4 68 68 68s68-30.4 68-68V222.4c0-8.8 7.2-16 16-16s16 7.2 16 16v133.6c0 55.2-44.8 100-100 100z" p-id="8067"></path><path d="M920 456c-8.8 0-16-7.2-16-16V222.4c0-8.8 7.2-16 16-16s16 7.2 16 16V440c0 8.8-7.2 16-16 16zM116 644h-96c-8.8 0-16-7.2-16-16v-7.2C3.2 404.8 26.4 272 72 225.6c12.8-12.8 28-19.2 44-19.2 8.8 0 16 7.2 16 16v405.6c0 8.8-7.2 16-16 16z m-80-32h64v-368c-1.6 1.6-3.2 3.2-5.6 4.8-21.6 21.6-58.4 98.4-58.4 363.2z" p-id="8068"></path><path d="M86.4 817.6c-13.6 0-27.2-5.6-36.8-16-9.6-10.4-14.4-24-13.6-37.6l5.6-136.8c0-8.8 7.2-15.2 16-15.2h58.4c8.8 0 16 6.4 16 15.2l5.6 136.8c0.8 13.6-4 27.2-13.6 37.6-9.6 10.4-23.2 16-37.6 16zM72.8 644l-4.8 121.6c0 5.6 1.6 10.4 4.8 14.4 7.2 7.2 20 7.2 27.2 0 3.2-4 5.6-8.8 4.8-13.6l-4.8-121.6H72.8z" p-id="8069"></path></svg>