<?xml version="1.0" standalone="no"?><!DOCTYPE svg PUBLIC "-//W3C//DTD SVG 1.1//EN" "http://www.w3.org/Graphics/SVG/1.1/DTD/svg11.dtd"><svg t="1645247117849" class="icon" viewBox="0 0 1024 1024" version="1.1" xmlns="http://www.w3.org/2000/svg" p-id="3653" xmlns:xlink="http://www.w3.org/1999/xlink" width="16" height="16"><defs><style type="text/css"></style></defs><path d="M480 678.304v0.896h-0.96L313.024 832l-51.232-47.168L112 934.624l-22.624-22.624 148.864-148.864L192 720.576l270.528-248.96a89.344 89.344 0 0 1 121.024 0 75.712 75.712 0 0 1 0 111.36l-45.984 42.336 5.216 0.096-3.36 192-32-0.576 2.912-166.464-30.336 27.936z m0-179.296v135.808l81.856-75.36a43.712 43.712 0 0 0 0-64.32 57.344 57.344 0 0 0-77.664 0l-4.192 3.84z m-32 29.44l-64 58.912v135.808l64-58.88v-135.84z m-96 88.352L239.264 720.64l73.76 67.904L352 752.64v-135.84zM395.968 480v32h-192v-32h192zM176 480v32H120.896v-32H176z m670.208 0v32h-192v-32h192z m83.104 0v32h-54.08v-32h54.08z m-386.336-112h-32v-192h32v192z m0-225.536h-32V92.8h32v49.664z m-2.432 757.984l-32-0.48 0.8-52.224 32 0.512-0.8 52.192zM445.12 393.376l-22.624 22.624L286.72 280.256l22.624-22.624 135.776 135.744zM286.4 233.536l-22.08 23.136-36.352-34.656 22.08-23.136L286.4 233.536z m477.088 478.208l-22.624 22.624-135.776-135.744 22.624-22.624 135.776 135.744z m58.752 58.72l-22.592 22.656-41.28-41.088 22.624-22.656 41.248 41.088z m-197.312-357.216l-22.656-22.624 135.776-135.744 22.624 22.624-135.744 135.744z m156.992-158.752l-23.52-21.728 33.184-35.904 23.52 21.728-33.184 35.904zM470.4 293.024l-27.52 16.384-87.104-146.112 27.488-16.384 87.136 146.112z m115.264 0l87.136-146.112 27.488 16.384-87.136 146.112-27.488-16.384z m0 400.8l27.52-16.384 87.104 146.112-27.488 16.384-87.136-146.112z m131.808-246.528l-16.96-27.136 168.608-105.376 16.96 27.136-168.64 105.376z m0 97.408l168.608 105.376-16.96 27.136-168.64-105.376 16.96-27.136z m-378.88-97.408l-168.608-105.376 16.96-27.136 168.64 105.376-16.96 27.136z" p-id="3654"></path></svg>