<?xml version="1.0" standalone="no"?><!DOCTYPE svg PUBLIC "-//W3C//DTD SVG 1.1//EN" "http://www.w3.org/Graphics/SVG/1.1/DTD/svg11.dtd"><svg t="1645246867743" class="icon" viewBox="0 0 1024 1024" version="1.1" xmlns="http://www.w3.org/2000/svg" p-id="2762" xmlns:xlink="http://www.w3.org/1999/xlink" width="16" height="16"><defs><style type="text/css"></style></defs><path d="M627.32664433 184.76390087l14.31820639-59.87613587H380.79316311l14.0578754 59.87613587h-185.87635227v713.30701003h603.96797931v-713.30701003h-185.61602122z m120.79359585 648.22425365h-473.80246651v-583.14149728H410.47090003l7.02893771 29.93806797h187.17800737l7.02893767-29.93806797h136.4134574v583.14149728z" fill="" p-id="2763"></path><path d="M494.29749026 570.57448076c-26.29343356 4.94628947-60.65712896 6.76860667-73.67368023-11.45456514-23.95045435-33.32237125 13.01655127-124.95889226 34.6240264-164.26887711l-19.26449589-10.67357207-19.2644959-10.67357202c-8.07026179 14.83886847-78.61996973 146.56636739-31.76038509 211.64912377 21.34714409 29.93806795 61.177791 39.57031588 117.66962353 29.15707484 34.62402641-6.50827565 79.66129381-9.37191692 97.10347253 13.0165513 19.52482692 25.25210948 1.30165514 79.40096279-6.50827563 96.32247946l40.09097794 18.74383383c4.42562746-9.11158592 40.871971-90.85552793 1.56198612-142.14073997-25.25210948-32.28104717-72.37202514-42.43395715-140.57875378-29.67773689z" fill="" p-id="2764"></path></svg>